<svg width="512" height="512" viewBox="0 0 512 512" fill="none" xmlns="http://www.w3.org/2000/svg">
<path d="M0 180.576C0 117.369 0 85.7649 12.301 61.6227C23.1213 40.3867 40.3867 23.1213 61.6227 12.301C85.7649 0 117.369 0 180.576 0H331.424C394.631 0 426.235 0 450.377 12.301C471.613 23.1213 488.879 40.3867 499.699 61.6227C512 85.7649 512 117.369 512 180.576V331.424C512 394.631 512 426.235 499.699 450.377C488.879 471.613 471.613 488.879 450.377 499.699C426.235 512 394.631 512 331.424 512H180.576C117.369 512 85.7649 512 61.6227 499.699C40.3867 488.879 23.1213 471.613 12.301 450.377C0 426.235 0 394.631 0 331.424V180.576Z" fill="url(#paint0_linear_3_93)"/>
<path d="M198.464 352.637V197.372C198.464 191.55 201.721 187.992 208.236 186.698L343.094 159.526C350.26 158.233 354.169 161.467 354.821 169.23V287.62C354.821 297.324 340.162 303.793 310.846 307.028C255.143 315.761 263.938 408.92 340.162 383.69C369.479 373.015 374.366 344.873 374.366 316.732V89.6574C374.366 89.6574 374.366 70.2493 357.753 75.1014L191.623 109.065C191.623 109.065 178.919 111.006 178.919 126.533V323.525C178.919 333.229 164.261 339.698 134.944 342.933C79.2417 351.666 88.0368 444.825 164.261 419.594C193.578 408.92 198.464 380.778 198.464 352.637Z" fill="white"/>
<defs>
<linearGradient id="paint0_linear_3_93" x1="256" y1="0" x2="256" y2="512" gradientUnits="userSpaceOnUse">
<stop stop-color="#EC7075"/>
<stop offset="1" stop-color="#EA4E3F"/>
</linearGradient>
</defs>
</svg>
