<svg width="40" height="40" viewBox="0 0 40 40" fill="none" xmlns="http://www.w3.org/2000/svg">
<rect width="40" height="40" rx="20" fill="#5865F2"/>
<path d="M28.4453 11.5474C26.9311 10.8312 25.3073 10.3035 23.6095 10.0013C23.5786 9.99544 23.5477 10.01 23.5318 10.0392C23.323 10.422 23.0916 10.9215 22.9296 11.3141C21.1036 11.0323 19.2869 11.0323 17.4983 11.3141C17.3363 10.9128 17.0966 10.422 16.8868 10.0392C16.8709 10.011 16.84 9.99641 16.8091 10.0013C15.1122 10.3025 13.4885 10.8302 11.9733 11.5474C11.9602 11.5532 11.9489 11.5629 11.9415 11.5755C8.8615 16.3188 8.01777 20.9454 8.43167 25.5147C8.43355 25.5371 8.44572 25.5585 8.46258 25.5721C10.4947 27.1104 12.4631 28.0443 14.3949 28.6633C14.4258 28.673 14.4586 28.6613 14.4783 28.6351C14.9353 27.9918 15.3426 27.3135 15.6919 26.6002C15.7125 26.5584 15.6928 26.5088 15.6507 26.4923C15.0046 26.2397 14.3893 25.9316 13.7975 25.5818C13.7507 25.5536 13.7469 25.4846 13.79 25.4515C13.9145 25.3553 14.0391 25.2552 14.158 25.1542C14.1795 25.1357 14.2095 25.1318 14.2348 25.1435C18.1229 26.9734 22.3322 26.9734 26.1744 25.1435C26.1997 25.1309 26.2297 25.1348 26.2521 25.1532C26.3711 25.2543 26.4956 25.3553 26.6211 25.4515C26.6642 25.4846 26.6614 25.5536 26.6145 25.5818C26.0227 25.9384 25.4075 26.2397 24.7604 26.4914C24.7183 26.5079 24.6995 26.5584 24.7201 26.6002C25.0769 27.3125 25.4843 27.9908 25.9328 28.6341C25.9515 28.6613 25.9852 28.673 26.0162 28.6633C27.9574 28.0443 29.9258 27.1104 31.9579 25.5721C31.9757 25.5585 31.9869 25.538 31.9888 25.5157C32.4841 20.2331 31.1591 15.6444 28.4762 11.5765C28.4696 11.5629 28.4584 11.5532 28.4453 11.5474ZM16.2725 22.7325C15.1019 22.7325 14.1374 21.6247 14.1374 20.2642C14.1374 18.9037 15.0832 17.7959 16.2725 17.7959C17.4711 17.7959 18.4263 18.9134 18.4076 20.2642C18.4076 21.6247 17.4618 22.7325 16.2725 22.7325ZM24.1667 22.7325C22.9961 22.7325 22.0316 21.6247 22.0316 20.2642C22.0316 18.9037 22.9774 17.7959 24.1667 17.7959C25.3653 17.7959 26.3205 18.9134 26.3018 20.2642C26.3018 21.6247 25.3653 22.7325 24.1667 22.7325Z" fill="white"/>
</svg>
