<svg width="40" height="40" viewBox="0 0 40 40" fill="none" xmlns="http://www.w3.org/2000/svg">
<rect width="40" height="40" rx="20" fill="#191717"/>
<path fill-rule="evenodd" clip-rule="evenodd" d="M19.4912 8.33337C16.4456 8.33495 13.4998 9.41366 11.1806 11.3766C8.86148 13.3396 7.32014 16.0588 6.83225 19.048C6.34435 22.0372 6.9417 25.1015 8.51751 27.6929C10.0933 30.2844 12.5448 32.2341 15.4336 33.1933C16.0709 33.3116 16.311 32.9166 16.311 32.5807C16.311 32.2449 16.2983 31.2711 16.294 30.2065C12.725 30.9775 11.9708 28.7004 11.9708 28.7004C11.3888 27.2218 10.5475 26.8331 10.5475 26.8331C9.38332 26.0431 10.6346 26.0579 10.6346 26.0579C11.9241 26.1487 12.6018 27.3738 12.6018 27.3738C13.7447 29.3235 15.6036 28.7595 16.3344 28.43C16.4491 27.6041 16.7826 27.0422 17.1501 26.7232C14.2992 26.4022 11.3038 25.308 11.3038 20.4201C11.2861 19.1524 11.7592 17.9265 12.6252 16.996C12.4935 16.6749 12.0537 15.378 12.7505 13.6163C12.7505 13.6163 13.8276 13.2741 16.2791 14.9238C18.3819 14.352 20.6005 14.352 22.7033 14.9238C25.1528 13.2741 26.2277 13.6163 26.2277 13.6163C26.9266 15.3737 26.4869 16.6707 26.3552 16.996C27.2239 17.9267 27.698 19.1547 27.6787 20.4243C27.6787 25.3228 24.6769 26.4022 21.8217 26.7169C22.2806 27.114 22.6906 27.8892 22.6906 29.0806C22.6906 30.7873 22.6757 32.1604 22.6757 32.5807C22.6757 32.9208 22.9073 33.3179 23.5573 33.1933C26.4465 32.234 28.8982 30.284 30.474 27.692C32.0498 25.1001 32.6468 22.0354 32.1584 19.0459C31.6699 16.0564 30.1278 13.3372 27.8079 11.3746C25.4879 9.41195 22.5415 8.33395 19.4955 8.33337H19.4912Z" fill="white"/>
<path d="M11.5203 26.6493C11.4927 26.7127 11.3907 26.7317 11.3079 26.6873C11.225 26.643 11.1634 26.5606 11.1931 26.4951C11.2229 26.4296 11.3227 26.4127 11.4056 26.4571C11.4884 26.5015 11.5522 26.586 11.5203 26.6493Z" fill="white"/>
<path d="M12.0404 27.2259C11.9964 27.2479 11.9461 27.2541 11.898 27.2433C11.85 27.2325 11.8072 27.2055 11.777 27.1668C11.6941 27.078 11.6771 26.9555 11.7408 26.9006C11.8046 26.8457 11.9193 26.871 12.0022 26.9597C12.085 27.0485 12.1041 27.171 12.0404 27.2259Z" fill="white"/>
<path d="M12.5462 27.9589C12.4675 28.0138 12.3337 27.9589 12.2593 27.849C12.2388 27.8293 12.2224 27.8057 12.2113 27.7796C12.2001 27.7534 12.1943 27.7253 12.1943 27.6969C12.1943 27.6685 12.2001 27.6404 12.2113 27.6143C12.2224 27.5882 12.2388 27.5646 12.2593 27.5448C12.338 27.492 12.4718 27.5448 12.5462 27.6526C12.6205 27.7603 12.6226 27.9039 12.5462 27.9589V27.9589Z" fill="white"/>
<path d="M13.2328 28.6687C13.1627 28.7469 13.0203 28.7257 12.9035 28.6201C12.7867 28.5145 12.759 28.3709 12.8291 28.2948C12.8992 28.2188 13.0416 28.2399 13.1627 28.3434C13.2838 28.4469 13.3071 28.5927 13.2328 28.6687V28.6687Z" fill="white"/>
<path d="M14.1947 29.0827C14.1629 29.182 14.0184 29.2264 13.8739 29.1841C13.7295 29.1419 13.6339 29.0236 13.6615 28.9222C13.6891 28.8208 13.8357 28.7743 13.9823 28.8208C14.1289 28.8673 14.2223 28.9792 14.1947 29.0827Z" fill="white"/>
<path d="M15.2446 29.1544C15.2446 29.2579 15.1256 29.3467 14.9726 29.3488C14.8197 29.3509 14.6943 29.2664 14.6943 29.1629C14.6943 29.0594 14.8133 28.9707 14.9663 28.9685C15.1192 28.9664 15.2446 29.0488 15.2446 29.1544Z" fill="white"/>
<path d="M16.2215 28.9919C16.2406 29.0954 16.1344 29.2031 15.9814 29.2285C15.8285 29.2538 15.6946 29.1926 15.6755 29.0912C15.6564 28.9898 15.7668 28.8799 15.9156 28.8525C16.0643 28.825 16.2023 28.8884 16.2215 28.9919Z" fill="white"/>
</svg>
