<svg width="40" height="40" viewBox="0 0 40 40" fill="none" xmlns="http://www.w3.org/2000/svg">
<path d="M10.143 39.8585C7.76414 39.7503 6.4719 39.3545 5.61239 39.0192C4.4735 38.5758 3.66154 38.048 2.80679 37.1944C1.95203 36.3408 1.42301 35.5289 0.98196 34.39C0.646714 33.5305 0.25084 32.2382 0.142658 29.8594C0.0237763 27.288 0 26.5165 0 20.0018C0 13.4871 0.0261539 12.7167 0.141469 10.143C0.249651 7.76414 0.647903 6.47428 0.980771 5.61239C1.4242 4.4735 1.95322 3.66154 2.8056 2.8056C3.65917 1.95203 4.47113 1.42182 5.6112 0.980771C6.47071 0.645526 7.76295 0.249651 10.1418 0.141469C12.7144 0.0237763 13.4871 0 19.9994 0C26.5141 0 27.2845 0.0261539 29.8582 0.141469C32.237 0.249651 33.5269 0.647903 34.3888 0.980771C35.5277 1.42182 36.3396 1.95203 37.1944 2.8056C38.0492 3.65917 38.5758 4.47232 39.0192 5.6112C39.3545 6.47071 39.7503 7.76295 39.8585 10.1418C39.9762 12.7155 40 13.4859 40 20.0006C40 26.5129 39.9762 27.2856 39.8585 29.8594C39.7503 32.2382 39.3521 33.5305 39.0192 34.39C38.5758 35.5289 38.048 36.3408 37.1944 37.1944C36.3408 38.048 35.5277 38.5758 34.3888 39.0192C33.5293 39.3545 32.237 39.7503 29.8582 39.8585C27.2868 39.9762 26.5141 40 19.9994 40C13.4871 40 12.7144 39.9774 10.143 39.8585" fill="url(#paint0_radial_30_369)"/>
<path d="M15.4617 19.8583C15.4617 17.4299 17.4297 15.4607 19.8582 15.4607C22.2866 15.4607 24.2557 17.4299 24.2557 19.8583C24.2557 22.2867 22.2866 24.2559 19.8582 24.2559C17.4297 24.2559 15.4617 22.2867 15.4617 19.8583M13.0844 19.8583C13.0844 23.5994 16.117 26.6321 19.8582 26.6321C23.5993 26.6321 26.6319 23.5994 26.6319 19.8583C26.6319 16.1171 23.5993 13.0845 19.8582 13.0845C16.117 13.0845 13.0845 16.1169 13.0845 19.8583M25.3172 12.8159C25.3171 13.129 25.4098 13.4351 25.5836 13.6955C25.7575 13.9559 26.0046 14.1589 26.2938 14.2788C26.583 14.3988 26.9013 14.4302 27.2084 14.3693C27.5155 14.3083 27.7976 14.1577 28.0191 13.9364C28.2406 13.7151 28.3915 13.4331 28.4527 13.126C28.5139 12.819 28.4826 12.5007 28.3629 12.2114C28.2432 11.9221 28.0404 11.6748 27.7802 11.5007C27.5199 11.3267 27.2139 11.2337 26.9008 11.2336H26.9002C26.4805 11.2338 26.0781 11.4005 25.7813 11.6972C25.4845 11.9939 25.3176 12.3963 25.3172 12.8159M14.5287 30.5961C13.2426 30.5375 12.5435 30.3233 12.079 30.1423C11.4631 29.9025 11.0237 29.617 10.5616 29.1556C10.0996 28.6942 9.81361 28.2552 9.5749 27.6393C9.3938 27.1749 9.17957 26.4757 9.1211 25.1895C9.05715 23.799 9.04438 23.3813 9.04438 19.8585C9.04438 16.3357 9.05821 15.9192 9.1211 14.5275C9.17967 13.2414 9.39549 12.5435 9.5749 12.0777C9.81467 11.4618 10.1002 11.0224 10.5616 10.5604C11.023 10.0984 11.462 9.81236 12.079 9.57365C12.5433 9.39255 13.2426 9.17832 14.5287 9.11985C15.9192 9.0559 16.3369 9.04313 19.8582 9.04313C23.3794 9.04313 23.7975 9.05674 25.1892 9.12006C26.4753 9.17864 27.1732 9.39445 27.6389 9.57386C28.2548 9.81257 28.6943 10.0992 29.1563 10.5606C29.6183 11.022 29.9033 11.4621 30.143 12.078C30.3241 12.5423 30.5384 13.2416 30.5968 14.5277C30.6608 15.9194 30.6735 16.3359 30.6735 19.8587C30.6735 23.3815 30.6608 23.7981 30.5968 25.1897C30.5382 26.4759 30.323 27.1749 30.143 27.6395C29.9033 28.2554 29.6177 28.6948 29.1563 29.1558C28.6949 29.6167 28.2548 29.9027 27.6389 30.1425C27.1746 30.3236 26.4753 30.5378 25.1892 30.5963C23.7987 30.6603 23.381 30.673 19.8582 30.673C16.3354 30.673 15.9188 30.6603 14.5287 30.5963M14.4195 6.74651C13.0152 6.81047 12.0556 7.03314 11.2175 7.35924C10.3501 7.696 9.61489 8.14779 8.8807 8.88082C8.1465 9.61386 7.69588 10.3492 7.35912 11.2176C7.03302 12.0562 6.81035 13.0153 6.74639 14.4196C6.68138 15.8262 6.6665 16.2759 6.6665 19.8583C6.6665 23.4407 6.68138 23.8904 6.74639 25.297C6.81035 26.7014 7.03302 27.6604 7.35912 28.4989C7.69588 29.3663 8.14661 30.103 8.8807 30.8358C9.61479 31.5685 10.3491 32.0196 11.2175 32.3573C12.0571 32.6834 13.0152 32.9061 14.4195 32.9701C15.8268 33.034 16.2757 33.05 19.8582 33.05C23.4406 33.05 23.8903 33.0351 25.2968 32.9701C26.7013 32.9061 27.6602 32.6834 28.4988 32.3573C29.3662 32.0196 30.1014 31.5688 30.8356 30.8358C31.5698 30.1027 32.0195 29.3663 32.3572 28.4989C32.6833 27.6604 32.907 26.7013 32.9699 25.297C33.0339 23.8893 33.0488 23.4407 33.0488 19.8583C33.0488 16.2759 33.0339 15.8262 32.9699 14.4196C32.906 13.0152 32.6833 12.0557 32.3572 11.2176C32.0195 10.3503 31.5687 9.61502 30.8356 8.88082C30.1026 8.14663 29.3662 7.696 28.4999 7.35924C27.6602 7.03314 26.7012 6.80941 25.2979 6.74651C23.8911 6.68224 23.4417 6.66663 19.8598 6.66663C16.2778 6.66663 15.8273 6.68151 14.42 6.74651" fill="white"/>
<defs>
<radialGradient id="paint0_radial_30_369" cx="0" cy="0" r="1" gradientUnits="userSpaceOnUse" gradientTransform="translate(2.58876 39.1237) scale(50.7852)">
<stop offset="0.09" stop-color="#FA8F21"/>
<stop offset="0.78" stop-color="#D82D7E"/>
</radialGradient>
</defs>
</svg>
