<svg width="73" height="30" viewBox="0 0 73 30" fill="none" xmlns="http://www.w3.org/2000/svg">
<path d="M35.6037 5.67188C35.5639 5.29972 35.3963 5.00994 35.1009 4.80256C34.8082 4.59517 34.4276 4.49148 33.9588 4.49148C33.6293 4.49148 33.3466 4.54119 33.1108 4.64062C32.875 4.74006 32.6946 4.875 32.5696 5.04545C32.4446 5.21591 32.3807 5.41051 32.3778 5.62926C32.3778 5.81108 32.419 5.96875 32.5014 6.10227C32.5866 6.2358 32.7017 6.34943 32.8466 6.44318C32.9915 6.53409 33.152 6.6108 33.3281 6.6733C33.5043 6.7358 33.6818 6.78835 33.8608 6.83097L34.679 7.03551C35.0085 7.11222 35.3253 7.21591 35.6293 7.34659C35.9361 7.47727 36.2102 7.64205 36.4517 7.84091C36.696 8.03977 36.8892 8.27983 37.0312 8.56108C37.1733 8.84233 37.2443 9.17187 37.2443 9.54972C37.2443 10.0611 37.1136 10.5114 36.8523 10.9006C36.5909 11.2869 36.2131 11.5895 35.7188 11.8082C35.2273 12.0241 34.6321 12.1321 33.9332 12.1321C33.2543 12.1321 32.6648 12.027 32.1648 11.8168C31.6676 11.6065 31.2784 11.2997 30.9972 10.8963C30.7188 10.4929 30.5682 10.0014 30.5455 9.42188H32.1009C32.1236 9.72585 32.2173 9.97869 32.3821 10.1804C32.5469 10.3821 32.7614 10.5327 33.0256 10.6321C33.2926 10.7315 33.5909 10.7812 33.9205 10.7812C34.2642 10.7812 34.5653 10.7301 34.8239 10.6278C35.0852 10.5227 35.2898 10.3778 35.4375 10.1932C35.5852 10.0057 35.6605 9.78693 35.6634 9.53693C35.6605 9.30966 35.5938 9.12216 35.4631 8.97443C35.3324 8.82386 35.1491 8.69886 34.9134 8.59943C34.6804 8.49716 34.4077 8.40625 34.0952 8.3267L33.1023 8.07102C32.3835 7.88636 31.8153 7.60653 31.3977 7.23153C30.983 6.85369 30.7756 6.35227 30.7756 5.72727C30.7756 5.21307 30.9148 4.76278 31.1932 4.37642C31.4744 3.99006 31.8565 3.69034 32.3395 3.47727C32.8224 3.26136 33.3693 3.15341 33.9801 3.15341C34.5994 3.15341 35.142 3.26136 35.608 3.47727C36.0767 3.69034 36.4446 3.98722 36.7116 4.3679C36.9787 4.74574 37.1165 5.1804 37.125 5.67188H35.6037ZM40.1282 8.16477V12H38.5856V3.27273H40.0941V6.56676H40.1708C40.3242 6.19744 40.5614 5.90625 40.8825 5.69318C41.2063 5.47727 41.6183 5.36932 42.1183 5.36932C42.5728 5.36932 42.9691 5.46449 43.3072 5.65483C43.6452 5.84517 43.9066 6.12358 44.0913 6.49006C44.2788 6.85653 44.3725 7.30398 44.3725 7.83239V12H42.8299V8.07102C42.8299 7.63068 42.7163 7.28835 42.489 7.04403C42.2646 6.79687 41.9492 6.6733 41.543 6.6733C41.2702 6.6733 41.0259 6.73295 40.81 6.85227C40.5969 6.96875 40.4293 7.13778 40.3072 7.35938C40.1879 7.58097 40.1282 7.84943 40.1282 8.16477ZM48.8001 12.1278C48.1609 12.1278 47.6069 11.9872 47.1381 11.706C46.6694 11.4247 46.3058 11.0312 46.0472 10.5256C45.7915 10.0199 45.6637 9.42898 45.6637 8.75284C45.6637 8.0767 45.7915 7.48437 46.0472 6.97585C46.3058 6.46733 46.6694 6.07244 47.1381 5.79119C47.6069 5.50994 48.1609 5.36932 48.8001 5.36932C49.4393 5.36932 49.9933 5.50994 50.462 5.79119C50.9308 6.07244 51.293 6.46733 51.5487 6.97585C51.8072 7.48437 51.9364 8.0767 51.9364 8.75284C51.9364 9.42898 51.8072 10.0199 51.5487 10.5256C51.293 11.0312 50.9308 11.4247 50.462 11.706C49.9933 11.9872 49.4393 12.1278 48.8001 12.1278ZM48.8086 10.892C49.1552 10.892 49.445 10.7969 49.6779 10.6065C49.9109 10.4134 50.0842 10.1548 50.1978 9.83097C50.3143 9.5071 50.3725 9.14631 50.3725 8.74858C50.3725 8.34801 50.3143 7.9858 50.1978 7.66193C50.0842 7.33523 49.9109 7.07528 49.6779 6.8821C49.445 6.68892 49.1552 6.59233 48.8086 6.59233C48.4535 6.59233 48.158 6.68892 47.9222 6.8821C47.6893 7.07528 47.5146 7.33523 47.3981 7.66193C47.2844 7.9858 47.2276 8.34801 47.2276 8.74858C47.2276 9.14631 47.2844 9.5071 47.3981 9.83097C47.5146 10.1548 47.6893 10.4134 47.9222 10.6065C48.158 10.7969 48.4535 10.892 48.8086 10.892ZM53.2457 12V5.45455H54.7415V6.54545H54.8097C54.929 6.16761 55.1335 5.87642 55.4233 5.67188C55.7159 5.46449 56.0497 5.3608 56.4247 5.3608C56.5099 5.3608 56.6051 5.36506 56.7102 5.37358C56.8182 5.37926 56.9077 5.3892 56.9787 5.40341V6.82244C56.9134 6.79972 56.8097 6.77983 56.6676 6.76278C56.5284 6.7429 56.3935 6.73295 56.2628 6.73295C55.9815 6.73295 55.7287 6.79403 55.5043 6.91619C55.2827 7.03551 55.108 7.2017 54.9801 7.41477C54.8523 7.62784 54.7884 7.87358 54.7884 8.15199V12H53.2457ZM61.6236 5.45455V6.64773H57.8608V5.45455H61.6236ZM58.7898 3.88636H60.3324V10.0312C60.3324 10.2386 60.3636 10.3977 60.4261 10.5085C60.4915 10.6165 60.5767 10.6903 60.6818 10.7301C60.7869 10.7699 60.9034 10.7898 61.0312 10.7898C61.1278 10.7898 61.2159 10.7827 61.2955 10.7685C61.3778 10.7543 61.4403 10.7415 61.483 10.7301L61.7429 11.9361C61.6605 11.9645 61.5426 11.9957 61.3892 12.0298C61.2386 12.0639 61.054 12.0838 60.8352 12.0895C60.4489 12.1009 60.1009 12.0426 59.7912 11.9148C59.4815 11.7841 59.2358 11.5824 59.054 11.3097C58.875 11.0369 58.7869 10.696 58.7898 10.2869V3.88636ZM64.5969 3.27273V12H63.0543V3.27273H64.5969ZM67.142 14.4545C66.9318 14.4545 66.7372 14.4375 66.5582 14.4034C66.3821 14.3722 66.2415 14.3352 66.1364 14.2926L66.4943 13.0909C66.7188 13.1563 66.919 13.1875 67.0952 13.1847C67.2713 13.1818 67.4261 13.1264 67.5597 13.0185C67.696 12.9134 67.8111 12.7372 67.9048 12.4901L68.0369 12.1364L65.6634 5.45455H67.2997L68.8082 10.3977H68.8764L70.3892 5.45455H72.0298L69.4091 12.7926C69.2869 13.1392 69.125 13.4361 68.9233 13.6832C68.7216 13.9332 68.4744 14.1236 68.1818 14.2543C67.892 14.3878 67.5455 14.4545 67.142 14.4545Z" fill="black"/>
<path d="M30.8608 27V18.2727H32.4418V25.6747H36.2855V27H30.8608ZM37.5895 27V20.4545H39.1321V27H37.5895ZM38.3651 19.5256C38.1207 19.5256 37.9105 19.4446 37.7344 19.2827C37.5582 19.1179 37.4702 18.9205 37.4702 18.6903C37.4702 18.4574 37.5582 18.2599 37.7344 18.098C37.9105 17.9332 38.1207 17.8509 38.3651 17.8509C38.6122 17.8509 38.8224 17.9332 38.9957 18.098C39.1719 18.2599 39.2599 18.4574 39.2599 18.6903C39.2599 18.9205 39.1719 19.1179 38.9957 19.2827C38.8224 19.4446 38.6122 19.5256 38.3651 19.5256ZM42.261 23.1648V27H40.7184V20.4545H42.1928V21.5668H42.2695C42.4201 21.2003 42.6602 20.9091 42.9897 20.6932C43.3221 20.4773 43.7326 20.3693 44.2212 20.3693C44.6729 20.3693 45.0664 20.4659 45.4016 20.6591C45.7397 20.8523 46.0011 21.1321 46.1857 21.4986C46.3732 21.8651 46.4656 22.3097 46.4627 22.8324V27H44.9201V23.071C44.9201 22.6335 44.8065 22.2912 44.5792 22.044C44.3548 21.7969 44.0437 21.6733 43.646 21.6733C43.3761 21.6733 43.136 21.733 42.9258 21.8523C42.7184 21.9687 42.555 22.1378 42.4357 22.3594C42.3192 22.581 42.261 22.8494 42.261 23.1648ZM49.4371 24.946L49.4329 23.0838H49.68L52.0323 20.4545H53.8349L50.9414 23.6761H50.6218L49.4371 24.946ZM48.0309 27V18.2727H49.5735V27H48.0309ZM52.1388 27L50.0082 24.0213L51.0479 22.9347L53.984 27H52.1388Z" fill="black"/>
<path d="M16.3248 13.675C16.9934 14.3415 17.5239 15.1335 17.8858 16.0054C18.2478 16.8774 18.4341 17.8122 18.4341 18.7562C18.4341 19.7003 18.2478 20.6351 17.8858 21.5071C17.5239 22.379 16.9934 23.1709 16.3248 23.8375C13.5123 26.6375 8.96231 26.65 6.16231 23.8375C3.36231 21.025 3.34981 16.475 6.16231 13.675" stroke="black" stroke-width="1.5" stroke-linecap="round" stroke-linejoin="round"/>
<path d="M13.2377 16.7625C10.3127 13.8375 10.3127 9.08748 13.2377 6.14998C16.1627 3.21248 20.9127 3.22498 23.8502 6.14998C26.7877 9.07498 26.7752 13.825 23.8502 16.7625" stroke="black" stroke-width="1.5" stroke-linecap="round" stroke-linejoin="round"/>
</svg>
