<svg width="513" height="512" viewBox="0 0 513 512" fill="none" xmlns="http://www.w3.org/2000/svg">
<path fill-rule="evenodd" clip-rule="evenodd" d="M256.003 0C114.618 0 0 114.612 0 255.997C0 397.391 114.618 512 256.003 512C397.391 512 512.003 397.391 512.003 255.997C512.003 114.612 397.391 0 256.003 0Z" fill="#1ED760"/>
<path fill-rule="evenodd" clip-rule="evenodd" d="M407.433 226.95C324.913 177.943 188.799 173.437 110.023 197.346C97.3737 201.182 83.9964 194.041 80.1629 181.392C76.3295 168.736 83.4644 155.368 96.1234 151.522C186.552 124.073 336.875 129.374 431.874 185.766C443.255 192.522 446.987 207.217 440.241 218.577C433.491 229.955 418.784 233.705 407.433 226.95ZM404.731 299.534C398.944 308.928 386.661 311.872 377.279 306.107C308.482 263.817 203.576 251.567 122.184 276.274C111.628 279.462 100.48 273.51 97.2758 262.976C94.0935 252.42 100.049 241.293 110.583 238.083C203.564 209.87 319.148 223.535 398.164 272.095C407.546 277.873 410.499 290.162 404.731 299.534ZM373.406 369.242C368.808 376.784 358.983 379.15 351.469 374.552C291.351 337.811 215.685 329.511 126.574 349.867C117.987 351.836 109.43 346.453 107.471 337.869C105.502 329.282 110.864 320.725 119.469 318.766C216.987 296.471 300.638 306.067 368.114 347.299C375.638 351.894 378.007 361.722 373.406 369.242Z" fill="black"/>
</svg>
