<svg width="9" height="13" viewBox="0 0 9 13" fill="none" xmlns="http://www.w3.org/2000/svg">
<path d="M4.79445 0.649726L8.72613 4.62257C8.92336 4.82245 8.92336 5.14627 8.72613 5.34615C8.6322 5.44373 8.50331 5.49876 8.36871 5.49876C8.23411 5.49876 8.10522 5.44373 8.01128 5.34615L4.94282 2.24706V9.91287C4.94282 10.1956 4.71637 10.4248 4.43703 10.4248C4.15769 10.4248 3.93124 10.1956 3.93124 9.91287V2.24706L0.862771 5.34615C0.768878 5.4435 0.639745 5.49775 0.505346 5.49633C0.371098 5.49697 0.242256 5.44283 0.14792 5.34615C-0.0493068 5.14627 -0.0493068 4.82245 0.14792 4.62257L4.0796 0.649726C4.27707 0.450091 4.59698 0.450091 4.79445 0.649726Z" fill="white"/>
<path d="M1.06509 11.4761H7.80897C8.08831 11.4761 8.31476 11.7053 8.31476 11.988C8.31476 12.2708 8.08831 12.5 7.80897 12.5H1.06509C0.785749 12.5 0.559298 12.2708 0.559298 11.988C0.559298 11.7053 0.785749 11.4761 1.06509 11.4761Z" fill="white"/>
</svg>
