<svg width="512" height="512" viewBox="0 0 512 512" fill="none" xmlns="http://www.w3.org/2000/svg">
<path d="M103.589 50.2751C141.486 22.1936 186.277 5.21811 232.96 1V78.2485C202.783 82.1606 173.964 93.714 149.312 111.981C118.444 134.854 95.7442 167.041 84.5607 203.796C73.3769 240.551 74.3016 279.927 87.1981 316.115C100.095 352.305 124.28 383.393 156.188 404.791C188.095 426.189 226.035 436.766 264.411 434.965C302.787 433.16 339.567 419.071 369.329 394.776C399.087 370.478 420.251 337.26 429.698 300.022C436.289 274.047 436.932 247.074 431.771 221.071L496.639 168.921L496.596 168.501C514.107 216.669 516.782 269.072 504.141 318.906C490.645 372.104 460.412 419.558 417.897 454.268C375.382 488.975 322.84 509.102 268.016 511.678C213.193 514.253 158.993 499.143 113.411 468.573C67.8292 438.006 33.2781 393.596 14.8546 341.896C-3.56902 290.197 -4.88992 233.946 11.0867 181.44C27.0634 128.933 59.4917 82.9504 103.589 50.2751Z" fill="#FCCA00"/>
<path d="M447.727 86.3297L447.999 87.0103L404.651 155.86C388.885 132.499 367.762 113.054 343.039 99.2912V255.97C343.039 304.041 304.07 343.011 255.999 343.011C207.928 343.011 168.959 304.041 168.959 255.97C168.959 207.9 207.928 168.93 255.999 168.93C274.015 168.93 290.752 174.404 304.639 183.779V4.58545C361.149 15.4547 411.048 44.905 447.727 86.3297Z" fill="#FC3F1D"/>
</svg>
